<svg width="48" height="48" viewBox="0 0 48 48" fill="none" xmlns="http://www.w3.org/2000/svg">
<g clip-path="url(#clip0_12_35)">
<path d="M18.438 33.6057C18.438 33.6057 17.0158 34.4705 19.4266 34.718C22.3288 35.088 23.8747 35.0267 27.0868 34.4093C27.7323 34.8046 28.4151 35.1357 29.1252 35.3979C21.8987 38.4874 12.7539 35.2129 18.438 33.6057ZM17.513 29.59C17.513 29.59 15.9683 30.7636 18.3779 31.0122C21.5287 31.3209 23.9996 31.3822 28.2638 30.5185C28.6786 30.9391 29.1863 31.2563 29.7462 31.4446C21.035 34.0393 11.2739 31.6909 17.513 29.59ZM34.5642 36.6316C34.5642 36.6316 35.6141 37.4964 33.3907 38.1763C29.2513 39.4135 16.0307 39.7835 12.3238 38.1763C11.0265 37.6213 13.4974 36.8177 14.2894 36.694C15.093 36.509 15.5266 36.509 15.5266 36.509C14.1044 35.5204 6.07425 38.5475 11.4497 39.4112C26.215 41.8208 38.3857 38.3613 34.555 36.6316H34.5642ZM19.1063 25.3882C19.1063 25.3882 12.3723 26.9954 16.6967 27.5504C18.5502 27.7978 22.1947 27.7354 25.5929 27.4891C28.3725 27.2417 31.1545 26.7491 31.1545 26.7491C31.1545 26.7491 30.1659 27.1815 29.486 27.614C22.6294 29.4062 9.469 28.6026 13.2384 26.7491C16.4504 25.2044 19.1075 25.3905 19.1075 25.3905L19.1063 25.3882ZM31.1545 32.1222C38.0735 28.5378 34.8614 25.0806 32.6368 25.5119C32.0818 25.6356 31.8332 25.7594 31.8332 25.7594C31.8332 25.7594 32.0182 25.3894 32.4506 25.2656C36.8374 23.7209 40.2969 29.8987 31.0284 32.3072C31.0284 32.3072 31.0897 32.2459 31.1522 32.1222H31.1545ZM19.7885 41.8833C26.4601 42.3157 36.6547 41.6358 36.901 38.4839C36.901 38.4839 36.4073 39.7211 31.4031 40.6461C25.7189 41.6959 18.6762 41.5711 14.5368 40.8935C14.5368 40.8935 15.4017 41.6347 19.7885 41.8833Z" fill="#4E7896"/>
<path d="M26.9643 5.0011C26.9643 5.0011 30.795 8.89304 23.3198 14.7622C17.327 19.519 21.9612 22.2373 23.3198 25.3268C19.7979 22.176 17.2657 19.3953 18.9954 16.8018C21.5276 12.97 28.509 11.1281 26.9643 5.0011ZM24.9987 22.7322C26.7909 24.7707 24.505 26.6241 24.505 26.6241C24.505 26.6241 29.0768 24.2769 26.9759 21.3724C25.0611 18.5928 23.5765 17.2331 31.609 12.6C31.609 12.6 18.9445 15.7508 24.9987 22.7322Z" fill="#F58219"/>
</g>
<defs>
<clipPath id="clip0_12_35">
<rect width="37" height="37" fill="white" transform="translate(5 5)"/>
</clipPath>
</defs>
</svg>
